<svg id="visual" viewBox="0 0 300 300" width="300" height="300" xmlns="http://www.w3.org/2000/svg" xmlns:xlink="http://www.w3.org/1999/xlink" version="1.1"><path d="M0 88L4.5 84C9 80 18 72 27.2 74.5C36.3 77 45.7 90 54.8 92.5C64 95 73 87 82 88C91 89 100 99 109 100.5C118 102 127 95 136.2 99C145.3 103 154.7 118 163.8 112.5C173 107 182 81 191 66.5C200 52 209 49 218 54.5C227 60 236 74 245.2 73C254.3 72 263.7 56 272.8 55.5C282 55 291 70 295.5 77.5L300 85L300 0L295.5 0C291 0 282 0 272.8 0C263.7 0 254.3 0 245.2 0C236 0 227 0 218 0C209 0 200 0 191 0C182 0 173 0 163.8 0C154.7 0 145.3 0 136.2 0C127 0 118 0 109 0C100 0 91 0 82 0C73 0 64 0 54.8 0C45.7 0 36.3 0 27.2 0C18 0 9 0 4.5 0L0 0Z" fill="#ff9d6e"></path><path d="M0 115L4.5 111C9 107 18 99 27.2 100C36.3 101 45.7 111 54.8 112C64 113 73 105 82 108C91 111 100 125 109 127C118 129 127 119 136.2 121C145.3 123 154.7 137 163.8 131.5C173 126 182 101 191 86.5C200 72 209 68 218 72.5C227 77 236 90 245.2 92C254.3 94 263.7 85 272.8 85C282 85 291 94 295.5 98.5L300 103L300 83L295.5 75.5C291 68 282 53 272.8 53.5C263.7 54 254.3 70 245.2 71C236 72 227 58 218 52.5C209 47 200 50 191 64.5C182 79 173 105 163.8 110.5C154.7 116 145.3 101 136.2 97C127 93 118 100 109 98.5C100 97 91 87 82 86C73 85 64 93 54.8 90.5C45.7 88 36.3 75 27.2 72.5C18 70 9 78 4.5 82L0 86Z" fill="#fe8e59"></path><path d="M0 136L4.5 130.5C9 125 18 114 27.2 116.5C36.3 119 45.7 135 54.8 138.5C64 142 73 133 82 136.5C91 140 100 156 109 157.5C118 159 127 146 136.2 147C145.3 148 154.7 163 163.8 158.5C173 154 182 130 191 117.5C200 105 209 104 218 108.5C227 113 236 123 245.2 124C254.3 125 263.7 117 272.8 118C282 119 291 129 295.5 134L300 139L300 101L295.5 96.5C291 92 282 83 272.8 83C263.7 83 254.3 92 245.2 90C236 88 227 75 218 70.5C209 66 200 70 191 84.5C182 99 173 124 163.8 129.5C154.7 135 145.3 121 136.2 119C127 117 118 127 109 125C100 123 91 109 82 106C73 103 64 111 54.8 110C45.7 109 36.3 99 27.2 98C18 97 9 105 4.5 109L0 113Z" fill="#fc7f45"></path><path d="M0 199L4.5 195C9 191 18 183 27.2 180.5C36.3 178 45.7 181 54.8 178.5C64 176 73 168 82 170.5C91 173 100 186 109 190.5C118 195 127 191 136.2 192.5C145.3 194 154.7 201 163.8 192C173 183 182 158 191 146C200 134 209 135 218 140.5C227 146 236 156 245.2 160.5C254.3 165 263.7 164 272.8 168.5C282 173 291 183 295.5 188L300 193L300 137L295.5 132C291 127 282 117 272.8 116C263.7 115 254.3 123 245.2 122C236 121 227 111 218 106.5C209 102 200 103 191 115.5C182 128 173 152 163.8 156.5C154.7 161 145.3 146 136.2 145C127 144 118 157 109 155.5C100 154 91 138 82 134.5C73 131 64 140 54.8 136.5C45.7 133 36.3 117 27.2 114.5C18 112 9 123 4.5 128.5L0 134Z" fill="#f96f2f"></path><path d="M0 235L4.5 228.5C9 222 18 209 27.2 209C36.3 209 45.7 222 54.8 224.5C64 227 73 219 82 218C91 217 100 223 109 225.5C118 228 127 227 136.2 226.5C145.3 226 154.7 226 163.8 217C173 208 182 190 191 180.5C200 171 209 170 218 172C227 174 236 179 245.2 184.5C254.3 190 263.7 196 272.8 200C282 204 291 206 295.5 207L300 208L300 191L295.5 186C291 181 282 171 272.8 166.5C263.7 162 254.3 163 245.2 158.5C236 154 227 144 218 138.5C209 133 200 132 191 144C182 156 173 181 163.8 190C154.7 199 145.3 192 136.2 190.5C127 189 118 193 109 188.5C100 184 91 171 82 168.5C73 166 64 174 54.8 176.5C45.7 179 36.3 176 27.2 178.5C18 181 9 189 4.5 193L0 197Z" fill="#e4642b"></path><path d="M0 274L4.5 276.5C9 279 18 284 27.2 285C36.3 286 45.7 283 54.8 279.5C64 276 73 272 82 270.5C91 269 100 270 109 270C118 270 127 269 136.2 271C145.3 273 154.7 278 163.8 281C173 284 182 285 191 285C200 285 209 284 218 284C227 284 236 285 245.2 284.5C254.3 284 263.7 282 272.8 279C282 276 291 272 295.5 270L300 268L300 206L295.5 205C291 204 282 202 272.8 198C263.7 194 254.3 188 245.2 182.5C236 177 227 172 218 170C209 168 200 169 191 178.5C182 188 173 206 163.8 215C154.7 224 145.3 224 136.2 224.5C127 225 118 226 109 223.5C100 221 91 215 82 216C73 217 64 225 54.8 222.5C45.7 220 36.3 207 27.2 207C18 207 9 220 4.5 226.5L0 233Z" fill="#cf5926"></path><path d="M0 301L4.5 301C9 301 18 301 27.2 301C36.3 301 45.7 301 54.8 301C64 301 73 301 82 301C91 301 100 301 109 301C118 301 127 301 136.2 301C145.3 301 154.7 301 163.8 301C173 301 182 301 191 301C200 301 209 301 218 301C227 301 236 301 245.2 301C254.3 301 263.7 301 272.8 301C282 301 291 301 295.5 301L300 301L300 266L295.5 268C291 270 282 274 272.8 277C263.7 280 254.3 282 245.2 282.5C236 283 227 282 218 282C209 282 200 283 191 283C182 283 173 282 163.8 279C154.7 276 145.3 271 136.2 269C127 267 118 268 109 268C100 268 91 267 82 268.5C73 270 64 274 54.8 277.5C45.7 281 36.3 284 27.2 283C18 282 9 277 4.5 274.5L0 272Z" fill="#ba4f22"></path></svg>