<svg xmlns="http://www.w3.org/2000/svg" viewBox="0 0 100 100"><g id="Layer_1" data-name="Layer 1"><path d="M24.26,64.87v-42H74.59V75.08a9.27,9.27,0,0,1-9.27,9.28H24.26" fill="#ffd44d"/><path d="M57.45,71.61v-2h-43v6.77a8,8,0,0,0,8,8H65.32c-5,0-6.88-4.52-7.56-8.57A25.41,25.41,0,0,1,57.45,71.61Z" fill="#ff9515"/><circle cx="70.66" cy="48.41" r="16.64" fill="#f0457d"/><circle cx="70.66" cy="48.41" r="10.06" fill="#fff"/><circle cx="70.66" cy="48.41" r="4.02" fill="#f0457d"/><polygon points="83.28 30.09 82.01 25.35 76.16 33.29 77.61 37.78 83.28 30.09" fill="#0099f5"/><polygon points="84.31 30.85 89.21 30.66 83.36 38.6 78.64 38.54 84.31 30.85" fill="#0099f5"/></g><g id="Layer_2" data-name="Layer 2"><path d="M74.59,64.58v10.5a9.27,9.27,0,0,1-9.27,9.28H24.26" fill="none" stroke="#231f20" stroke-miterlimit="10" stroke-width="1.5"/><polyline points="24.26 64.87 24.26 22.83 74.59 22.83 74.59 32.24" fill="none" stroke="#231f20" stroke-miterlimit="10" stroke-width="1.5"/><path d="M57.45,71.61v-2h-43v6.77a8,8,0,0,0,8,8H65.32c-5,0-6.88-4.52-7.56-8.57A25.41,25.41,0,0,1,57.45,71.61Z" fill="none" stroke="#231f20" stroke-miterlimit="10" stroke-width="1.5"/><path d="M85.65,41.18a16.63,16.63,0,1,1-9.22-8.38" fill="none" stroke="#231f20" stroke-miterlimit="10" stroke-width="1.5"/><circle cx="70.66" cy="48.41" r="10.06" fill="none" stroke="#231f20" stroke-miterlimit="10" stroke-width="1.5"/><circle cx="70.66" cy="48.41" r="4.02" fill="none" stroke="#231f20" stroke-miterlimit="10" stroke-width="1.5"/><path d="M75.86,27.75H78a0,0,0,0,1,0,0V50.32a1.06,1.06,0,0,1-1.06,1.06h0a1.06,1.06,0,0,1-1.06-1.06V27.75A0,0,0,0,1,75.86,27.75Z" transform="translate(38.5 -37.93) rotate(36.41)" fill="#231f20"/><polygon points="83.14 30.14 81.88 25.41 76.02 33.35 77.47 37.83 83.14 30.14" fill="none" stroke="#231f20" stroke-miterlimit="10" stroke-width="1.5"/><polygon points="84.18 30.91 89.08 30.72 83.22 38.66 78.51 38.6 84.18 30.91" fill="none" stroke="#231f20" stroke-miterlimit="10" stroke-width="1.5"/><line x1="32.91" y1="38.66" x2="46.06" y2="38.66" fill="none" stroke="#fff" stroke-miterlimit="10" stroke-width="1.5"/><line x1="32.91" y1="46.71" x2="46.06" y2="46.71" fill="none" stroke="#231f20" stroke-miterlimit="10" stroke-width="1.5"/><line x1="32.91" y1="54.77" x2="46.06" y2="54.77" fill="none" stroke="#231f20" stroke-miterlimit="10" stroke-width="1.5"/></g></svg>