<svg id="Layer_1" data-name="Layer 1" xmlns="http://www.w3.org/2000/svg" viewBox="0 0 500 500"><defs><style>.cls-1{fill:#e2e2e2;}.cls-2{fill:#f2f2f2;}.cls-3{fill:#f0457d;}.cls-4{fill:#fff;}.cls-5{fill:#0b35c2;}.cls-6{opacity:0.09;isolation:isolate;}.cls-7{fill:#ffd44d;}.cls-8{fill:#f9bb0d;}.cls-9{fill:none;stroke:#c3c7c9;stroke-linecap:round;stroke-linejoin:round;stroke-width:6px;}</style></defs><title>Idea</title><path class="cls-1" d="M65,113H400.51a15.26,15.26,0,0,1,15.26,15.26V371.69A15.26,15.26,0,0,1,400.51,387H123.85A58.84,58.84,0,0,1,65,328.11V113A0,0,0,0,1,65,113Z" transform="translate(-9.61 490.39) rotate(-90)"/><path class="cls-2" d="M283.13,359.56H39.51a10.07,10.07,0,0,0-10.07,10.08v10.59A44.75,44.75,0,0,0,74.19,425H333.6l.07.25a39.87,39.87,0,0,1-39.56-37.89l-.91-18.2A10.08,10.08,0,0,0,283.13,359.56Z"/><circle class="cls-3" cx="364.91" cy="208.52" r="115.09"/><circle class="cls-4" cx="364.91" cy="208.52" r="72.25"/><circle class="cls-3" cx="364.91" cy="208.52" r="27.46"/><path class="cls-5" d="M420.38,162.4,450.75,132q-3.75-4.22-7.91-8l-30.32,30.32A73.26,73.26,0,0,1,420.38,162.4Z"/><path class="cls-5" d="M360.76,214a5.63,5.63,0,0,0,8,0l19.61-19.61a27.45,27.45,0,0,0-7.68-8.27l-19.91,19.91A5.64,5.64,0,0,0,360.76,214Z"/><path class="cls-6" d="M479.28,197.17a114.69,114.69,0,0,0-32.73-70.29l-78,86.41Z"/><path class="cls-7" d="M468.88,131.83l-20.17-5.5a1.13,1.13,0,0,1-.78-.79l-5.5-20.16a1.12,1.12,0,0,0-1.87-.5l-29.39,29.4a1.13,1.13,0,0,0-.29,1.08l4.3,15.75L360.86,206a5.64,5.64,0,0,0,0,8h0a5.64,5.64,0,0,0,8,0l54.32-54.91,15.75,4.3a1.13,1.13,0,0,0,1.08-.29l29.4-29.4A1.11,1.11,0,0,0,468.88,131.83Z"/><path class="cls-8" d="M468.88,131.77l-20.17-5.5a1.1,1.1,0,0,1-.78-.78l-87.32,88.17c.08.09.16.19.25.28h0a5.64,5.64,0,0,0,8,0L423.15,159l15.75,4.29A1.09,1.09,0,0,0,440,163l29.4-29.39A1.12,1.12,0,0,0,468.88,131.77Z"/><line class="cls-9" x1="143.74" y1="174.2" x2="231" y2="174.2"/><line class="cls-9" x1="143.74" y1="208.57" x2="216" y2="208.57"/><line class="cls-9" x1="143.51" y1="243.1" x2="231" y2="243.1"/></svg>