<svg id="visual" viewBox="0 0 500 500" width="500" height="500" xmlns="http://www.w3.org/2000/svg" xmlns:xlink="http://www.w3.org/1999/xlink" version="1.1"><path d="M0 31L5.2 33.5C10.3 36 20.7 41 31.2 39.3C41.7 37.7 52.3 29.3 62.8 27.7C73.3 26 83.7 31 94 31.8C104.3 32.7 114.7 29.3 125 30.2C135.3 31 145.7 36 156.2 37.7C166.7 39.3 177.3 37.7 187.8 36C198.3 34.3 208.7 32.7 219 31C229.3 29.3 239.7 27.7 250 29.3C260.3 31 270.7 36 281.2 37.7C291.7 39.3 302.3 37.7 312.8 36.8C323.3 36 333.7 36 344 34.3C354.3 32.7 364.7 29.3 375 27.7C385.3 26 395.7 26 406.2 26C416.7 26 427.3 26 437.8 26C448.3 26 458.7 26 469 27.7C479.3 29.3 489.7 32.7 494.8 34.3L500 36L500 0L494.8 0C489.7 0 479.3 0 469 0C458.7 0 448.3 0 437.8 0C427.3 0 416.7 0 406.2 0C395.7 0 385.3 0 375 0C364.7 0 354.3 0 344 0C333.7 0 323.3 0 312.8 0C302.3 0 291.7 0 281.2 0C270.7 0 260.3 0 250 0C239.7 0 229.3 0 219 0C208.7 0 198.3 0 187.8 0C177.3 0 166.7 0 156.2 0C145.7 0 135.3 0 125 0C114.7 0 104.3 0 94 0C83.7 0 73.3 0 62.8 0C52.3 0 41.7 0 31.2 0C20.7 0 10.3 0 5.2 0L0 0Z" fill="#97cce4"></path><path d="M0 111L5.2 120.2C10.3 129.3 20.7 147.7 31.2 147.7C41.7 147.7 52.3 129.3 62.8 120.2C73.3 111 83.7 111 94 111C104.3 111 114.7 111 125 115.2C135.3 119.3 145.7 127.7 156.2 131C166.7 134.3 177.3 132.7 187.8 127.7C198.3 122.7 208.7 114.3 219 116C229.3 117.7 239.7 129.3 250 142.7C260.3 156 270.7 171 281.2 168.5C291.7 166 302.3 146 312.8 133.5C323.3 121 333.7 116 344 110.2C354.3 104.3 364.7 97.7 375 101.8C385.3 106 395.7 121 406.2 133.5C416.7 146 427.3 156 437.8 148.5C448.3 141 458.7 116 469 104.3C479.3 92.7 489.7 94.3 494.8 95.2L500 96L500 34L494.8 32.3C489.7 30.7 479.3 27.3 469 25.7C458.7 24 448.3 24 437.8 24C427.3 24 416.7 24 406.2 24C395.7 24 385.3 24 375 25.7C364.7 27.3 354.3 30.7 344 32.3C333.7 34 323.3 34 312.8 34.8C302.3 35.7 291.7 37.3 281.2 35.7C270.7 34 260.3 29 250 27.3C239.7 25.7 229.3 27.3 219 29C208.7 30.7 198.3 32.3 187.8 34C177.3 35.7 166.7 37.3 156.2 35.7C145.7 34 135.3 29 125 28.2C114.7 27.3 104.3 30.7 94 29.8C83.7 29 73.3 24 62.8 25.7C52.3 27.3 41.7 35.7 31.2 37.3C20.7 39 10.3 34 5.2 31.5L0 29Z" fill="#8cc7e2"></path><path d="M0 146L5.2 161.8C10.3 177.7 20.7 209.3 31.2 219.3C41.7 229.3 52.3 217.7 62.8 205.2C73.3 192.7 83.7 179.3 94 171.8C104.3 164.3 114.7 162.7 125 164.3C135.3 166 145.7 171 156.2 175.2C166.7 179.3 177.3 182.7 187.8 181C198.3 179.3 208.7 172.7 219 177.7C229.3 182.7 239.7 199.3 250 211.8C260.3 224.3 270.7 232.7 281.2 229.3C291.7 226 302.3 211 312.8 201.8C323.3 192.7 333.7 189.3 344 182.7C354.3 176 364.7 166 375 167.7C385.3 169.3 395.7 182.7 406.2 200.2C416.7 217.7 427.3 239.3 437.8 236C448.3 232.7 458.7 204.3 469 186C479.3 167.7 489.7 159.3 494.8 155.2L500 151L500 94L494.8 93.2C489.7 92.3 479.3 90.7 469 102.3C458.7 114 448.3 139 437.8 146.5C427.3 154 416.7 144 406.2 131.5C395.7 119 385.3 104 375 99.8C364.7 95.7 354.3 102.3 344 108.2C333.7 114 323.3 119 312.8 131.5C302.3 144 291.7 164 281.2 166.5C270.7 169 260.3 154 250 140.7C239.7 127.3 229.3 115.7 219 114C208.7 112.3 198.3 120.7 187.8 125.7C177.3 130.7 166.7 132.3 156.2 129C145.7 125.7 135.3 117.3 125 113.2C114.7 109 104.3 109 94 109C83.7 109 73.3 109 62.8 118.2C52.3 127.3 41.7 145.7 31.2 145.7C20.7 145.7 10.3 127.3 5.2 118.2L0 109Z" fill="#82c2e0"></path><path d="M0 161L5.2 176.8C10.3 192.7 20.7 224.3 31.2 236C41.7 247.7 52.3 239.3 62.8 229.3C73.3 219.3 83.7 207.7 94 198.5C104.3 189.3 114.7 182.7 125 184.3C135.3 186 145.7 196 156.2 201.8C166.7 207.7 177.3 209.3 187.8 206C198.3 202.7 208.7 194.3 219 198.5C229.3 202.7 239.7 219.3 250 231C260.3 242.7 270.7 249.3 281.2 246C291.7 242.7 302.3 229.3 312.8 220.2C323.3 211 333.7 206 344 201C354.3 196 364.7 191 375 192.7C385.3 194.3 395.7 202.7 406.2 220.2C416.7 237.7 427.3 264.3 437.8 261.8C448.3 259.3 458.7 227.7 469 206.8C479.3 186 489.7 176 494.8 171L500 166L500 149L494.8 153.2C489.7 157.3 479.3 165.7 469 184C458.7 202.3 448.3 230.7 437.8 234C427.3 237.3 416.7 215.7 406.2 198.2C395.7 180.7 385.3 167.3 375 165.7C364.7 164 354.3 174 344 180.7C333.7 187.3 323.3 190.7 312.8 199.8C302.3 209 291.7 224 281.2 227.3C270.7 230.7 260.3 222.3 250 209.8C239.7 197.3 229.3 180.7 219 175.7C208.7 170.7 198.3 177.3 187.8 179C177.3 180.7 166.7 177.3 156.2 173.2C145.7 169 135.3 164 125 162.3C114.7 160.7 104.3 162.3 94 169.8C83.7 177.3 73.3 190.7 62.8 203.2C52.3 215.7 41.7 227.3 31.2 217.3C20.7 207.3 10.3 175.7 5.2 159.8L0 144Z" fill="#77bdde"></path><path d="M0 196L5.2 211.8C10.3 227.7 20.7 259.3 31.2 271C41.7 282.7 52.3 274.3 62.8 265.2C73.3 256 83.7 246 94 233.5C104.3 221 114.7 206 125 207.7C135.3 209.3 145.7 227.7 156.2 233.5C166.7 239.3 177.3 232.7 187.8 227.7C198.3 222.7 208.7 219.3 219 226.8C229.3 234.3 239.7 252.7 250 263.5C260.3 274.3 270.7 277.7 281.2 274.3C291.7 271 302.3 261 312.8 251.8C323.3 242.7 333.7 234.3 344 229.3C354.3 224.3 364.7 222.7 375 224.3C385.3 226 395.7 231 406.2 245.2C416.7 259.3 427.3 282.7 437.8 281C448.3 279.3 458.7 252.7 469 235.2C479.3 217.7 489.7 209.3 494.8 205.2L500 201L500 164L494.8 169C489.7 174 479.3 184 469 204.8C458.7 225.7 448.3 257.3 437.8 259.8C427.3 262.3 416.7 235.7 406.2 218.2C395.7 200.7 385.3 192.3 375 190.7C364.7 189 354.3 194 344 199C333.7 204 323.3 209 312.8 218.2C302.3 227.3 291.7 240.7 281.2 244C270.7 247.3 260.3 240.7 250 229C239.7 217.3 229.3 200.7 219 196.5C208.7 192.3 198.3 200.7 187.8 204C177.3 207.3 166.7 205.7 156.2 199.8C145.7 194 135.3 184 125 182.3C114.7 180.7 104.3 187.3 94 196.5C83.7 205.7 73.3 217.3 62.8 227.3C52.3 237.3 41.7 245.7 31.2 234C20.7 222.3 10.3 190.7 5.2 174.8L0 159Z" fill="#6bb8dc"></path><path d="M0 216L5.2 231.8C10.3 247.7 20.7 279.3 31.2 295.2C41.7 311 52.3 311 62.8 305.2C73.3 299.3 83.7 287.7 94 275.2C104.3 262.7 114.7 249.3 125 250.2C135.3 251 145.7 266 156.2 267.7C166.7 269.3 177.3 257.7 187.8 252.7C198.3 247.7 208.7 249.3 219 260.2C229.3 271 239.7 291 250 299.3C260.3 307.7 270.7 304.3 281.2 301C291.7 297.7 302.3 294.3 312.8 286.8C323.3 279.3 333.7 267.7 344 263.5C354.3 259.3 364.7 262.7 375 267.7C385.3 272.7 395.7 279.3 406.2 292.7C416.7 306 427.3 326 437.8 319.3C448.3 312.7 458.7 279.3 469 261C479.3 242.7 489.7 239.3 494.8 237.7L500 236L500 199L494.8 203.2C489.7 207.3 479.3 215.7 469 233.2C458.7 250.7 448.3 277.3 437.8 279C427.3 280.7 416.7 257.3 406.2 243.2C395.7 229 385.3 224 375 222.3C364.7 220.7 354.3 222.3 344 227.3C333.7 232.3 323.3 240.7 312.8 249.8C302.3 259 291.7 269 281.2 272.3C270.7 275.7 260.3 272.3 250 261.5C239.7 250.7 229.3 232.3 219 224.8C208.7 217.3 198.3 220.7 187.8 225.7C177.3 230.7 166.7 237.3 156.2 231.5C145.7 225.7 135.3 207.3 125 205.7C114.7 204 104.3 219 94 231.5C83.7 244 73.3 254 62.8 263.2C52.3 272.3 41.7 280.7 31.2 269C20.7 257.3 10.3 225.7 5.2 209.8L0 194Z" fill="#62b0d5"></path><path d="M0 366L5.2 368.5C10.3 371 20.7 376 31.2 384.3C41.7 392.7 52.3 404.3 62.8 406C73.3 407.7 83.7 399.3 94 396.8C104.3 394.3 114.7 397.7 125 396C135.3 394.3 145.7 387.7 156.2 385.2C166.7 382.7 177.3 384.3 187.8 384.3C198.3 384.3 208.7 382.7 219 380.2C229.3 377.7 239.7 374.3 250 378.5C260.3 382.7 270.7 394.3 281.2 397.7C291.7 401 302.3 396 312.8 393.5C323.3 391 333.7 391 344 386.8C354.3 382.7 364.7 374.3 375 373.5C385.3 372.7 395.7 379.3 406.2 387.7C416.7 396 427.3 406 437.8 404.3C448.3 402.7 458.7 389.3 469 384.3C479.3 379.3 489.7 382.7 494.8 384.3L500 386L500 234L494.8 235.7C489.7 237.3 479.3 240.7 469 259C458.7 277.3 448.3 310.7 437.8 317.3C427.3 324 416.7 304 406.2 290.7C395.7 277.3 385.3 270.7 375 265.7C364.7 260.7 354.3 257.3 344 261.5C333.7 265.7 323.3 277.3 312.8 284.8C302.3 292.3 291.7 295.7 281.2 299C270.7 302.3 260.3 305.7 250 297.3C239.7 289 229.3 269 219 258.2C208.7 247.3 198.3 245.7 187.8 250.7C177.3 255.7 166.7 267.3 156.2 265.7C145.7 264 135.3 249 125 248.2C114.7 247.3 104.3 260.7 94 273.2C83.7 285.7 73.3 297.3 62.8 303.2C52.3 309 41.7 309 31.2 293.2C20.7 277.3 10.3 245.7 5.2 229.8L0 214Z" fill="#5ba5c8"></path><path d="M0 396L5.2 401.8C10.3 407.7 20.7 419.3 31.2 426.8C41.7 434.3 52.3 437.7 62.8 437.7C73.3 437.7 83.7 434.3 94 431.8C104.3 429.3 114.7 427.7 125 426C135.3 424.3 145.7 422.7 156.2 420.2C166.7 417.7 177.3 414.3 187.8 414.3C198.3 414.3 208.7 417.7 219 418.5C229.3 419.3 239.7 417.7 250 420.2C260.3 422.7 270.7 429.3 281.2 432.7C291.7 436 302.3 436 312.8 434.3C323.3 432.7 333.7 429.3 344 426C354.3 422.7 364.7 419.3 375 419.3C385.3 419.3 395.7 422.7 406.2 426.8C416.7 431 427.3 436 437.8 431.8C448.3 427.7 458.7 414.3 469 412.7C479.3 411 489.7 421 494.8 426L500 431L500 384L494.8 382.3C489.7 380.7 479.3 377.3 469 382.3C458.7 387.3 448.3 400.7 437.8 402.3C427.3 404 416.7 394 406.2 385.7C395.7 377.3 385.3 370.7 375 371.5C364.7 372.3 354.3 380.7 344 384.8C333.7 389 323.3 389 312.8 391.5C302.3 394 291.7 399 281.2 395.7C270.7 392.3 260.3 380.7 250 376.5C239.7 372.3 229.3 375.7 219 378.2C208.7 380.7 198.3 382.3 187.8 382.3C177.3 382.3 166.7 380.7 156.2 383.2C145.7 385.7 135.3 392.3 125 394C114.7 395.7 104.3 392.3 94 394.8C83.7 397.3 73.3 405.7 62.8 404C52.3 402.3 41.7 390.7 31.2 382.3C20.7 374 10.3 369 5.2 366.5L0 364Z" fill="#549bbc"></path><path d="M0 466L5.2 469.3C10.3 472.7 20.7 479.3 31.2 481.8C41.7 484.3 52.3 482.7 62.8 481.8C73.3 481 83.7 481 94 479.3C104.3 477.7 114.7 474.3 125 475.2C135.3 476 145.7 481 156.2 481C166.7 481 177.3 476 187.8 473.5C198.3 471 208.7 471 219 471C229.3 471 239.7 471 250 470.2C260.3 469.3 270.7 467.7 281.2 467.7C291.7 467.7 302.3 469.3 312.8 472.7C323.3 476 333.7 481 344 481C354.3 481 364.7 476 375 474.3C385.3 472.7 395.7 474.3 406.2 476.8C416.7 479.3 427.3 482.7 437.8 481.8C448.3 481 458.7 476 469 472.7C479.3 469.3 489.7 467.7 494.8 466.8L500 466L500 429L494.8 424C489.7 419 479.3 409 469 410.7C458.7 412.3 448.3 425.7 437.8 429.8C427.3 434 416.7 429 406.2 424.8C395.7 420.7 385.3 417.3 375 417.3C364.7 417.3 354.3 420.7 344 424C333.7 427.3 323.3 430.7 312.8 432.3C302.3 434 291.7 434 281.2 430.7C270.7 427.3 260.3 420.7 250 418.2C239.7 415.7 229.3 417.3 219 416.5C208.7 415.7 198.3 412.3 187.8 412.3C177.3 412.3 166.7 415.7 156.2 418.2C145.7 420.7 135.3 422.3 125 424C114.7 425.7 104.3 427.3 94 429.8C83.7 432.3 73.3 435.7 62.8 435.7C52.3 435.7 41.7 432.3 31.2 424.8C20.7 417.3 10.3 405.7 5.2 399.8L0 394Z" fill="#4e90b0"></path><path d="M0 501L5.2 501C10.3 501 20.7 501 31.2 501C41.7 501 52.3 501 62.8 501C73.3 501 83.7 501 94 501C104.3 501 114.7 501 125 501C135.3 501 145.7 501 156.2 501C166.7 501 177.3 501 187.8 501C198.3 501 208.7 501 219 501C229.3 501 239.7 501 250 501C260.3 501 270.7 501 281.2 501C291.7 501 302.3 501 312.8 501C323.3 501 333.7 501 344 501C354.3 501 364.7 501 375 501C385.3 501 395.7 501 406.2 501C416.7 501 427.3 501 437.8 501C448.3 501 458.7 501 469 501C479.3 501 489.7 501 494.8 501L500 501L500 464L494.8 464.8C489.7 465.7 479.3 467.3 469 470.7C458.7 474 448.3 479 437.8 479.8C427.3 480.7 416.7 477.3 406.2 474.8C395.7 472.3 385.3 470.7 375 472.3C364.7 474 354.3 479 344 479C333.7 479 323.3 474 312.8 470.7C302.3 467.3 291.7 465.7 281.2 465.7C270.7 465.7 260.3 467.3 250 468.2C239.7 469 229.3 469 219 469C208.7 469 198.3 469 187.8 471.5C177.3 474 166.7 479 156.2 479C145.7 479 135.3 474 125 473.2C114.7 472.3 104.3 475.7 94 477.3C83.7 479 73.3 479 62.8 479.8C52.3 480.7 41.7 482.3 31.2 479.8C20.7 477.3 10.3 470.7 5.2 467.3L0 464Z" fill="#4786a4"></path></svg>