<svg id="visual" viewBox="0 0 600 600" width="600" height="600" xmlns="http://www.w3.org/2000/svg" xmlns:xlink="http://www.w3.org/1999/xlink" version="1.1"><path d="M0 37L5.5 40C11 43 22 49 33.2 47C44.3 45 55.7 35 66.8 28C78 21 89 17 100 16C111 15 122 17 133.2 22C144.3 27 155.7 35 166.8 34C178 33 189 23 200 20C211 17 222 21 233.2 23C244.3 25 255.7 25 266.8 23C278 21 289 17 300 21C311 25 322 37 333.2 43C344.3 49 355.7 49 366.8 49C378 49 389 49 400 44C411 39 422 29 433.2 24C444.3 19 455.7 19 466.8 19C478 19 489 19 500 19C511 19 522 19 533.2 25C544.3 31 555.7 43 566.8 47C578 51 589 47 594.5 45L600 43L600 0L594.5 0C589 0 578 0 566.8 0C555.7 0 544.3 0 533.2 0C522 0 511 0 500 0C489 0 478 0 466.8 0C455.7 0 444.3 0 433.2 0C422 0 411 0 400 0C389 0 378 0 366.8 0C355.7 0 344.3 0 333.2 0C322 0 311 0 300 0C289 0 278 0 266.8 0C255.7 0 244.3 0 233.2 0C222 0 211 0 200 0C189 0 178 0 166.8 0C155.7 0 144.3 0 133.2 0C122 0 111 0 100 0C89 0 78 0 66.8 0C55.7 0 44.3 0 33.2 0C22 0 11 0 5.5 0L0 0Z" fill="#7fed67"></path><path d="M0 67L5.5 74C11 81 22 95 33.2 95C44.3 95 55.7 81 66.8 68C78 55 89 43 100 41C111 39 122 47 133.2 57C144.3 67 155.7 79 166.8 80C178 81 189 71 200 67C211 63 222 65 233.2 63C244.3 61 255.7 55 266.8 56C278 57 289 65 300 68C311 71 322 69 333.2 73C344.3 77 355.7 87 366.8 94C378 101 389 105 400 97C411 89 422 69 433.2 58C444.3 47 455.7 45 466.8 43C478 41 489 39 500 40C511 41 522 45 533.2 58C544.3 71 555.7 93 566.8 98C578 103 589 91 594.5 85L600 79L600 41L594.5 43C589 45 578 49 566.8 45C555.7 41 544.3 29 533.2 23C522 17 511 17 500 17C489 17 478 17 466.8 17C455.7 17 444.3 17 433.2 22C422 27 411 37 400 42C389 47 378 47 366.8 47C355.7 47 344.3 47 333.2 41C322 35 311 23 300 19C289 15 278 19 266.8 21C255.7 23 244.3 23 233.2 21C222 19 211 15 200 18C189 21 178 31 166.8 32C155.7 33 144.3 25 133.2 20C122 15 111 13 100 14C89 15 78 19 66.8 26C55.7 33 44.3 43 33.2 45C22 47 11 41 5.5 38L0 35Z" fill="#71ea57"></path><path d="M0 241L5.5 256C11 271 22 301 33.2 301C44.3 301 55.7 271 66.8 236C78 201 89 161 100 153C111 145 122 169 133.2 184C144.3 199 155.7 205 166.8 211C178 217 189 223 200 217C211 211 222 193 233.2 185C244.3 177 255.7 179 266.8 180C278 181 289 181 300 187C311 193 322 205 333.2 216C344.3 227 355.7 237 366.8 227C378 217 389 187 400 193C411 199 422 241 433.2 255C444.3 269 455.7 255 466.8 228C478 201 489 161 500 158C511 155 522 189 533.2 206C544.3 223 555.7 223 566.8 226C578 229 589 235 594.5 238L600 241L600 77L594.5 83C589 89 578 101 566.8 96C555.7 91 544.3 69 533.2 56C522 43 511 39 500 38C489 37 478 39 466.8 41C455.7 43 444.3 45 433.2 56C422 67 411 87 400 95C389 103 378 99 366.8 92C355.7 85 344.3 75 333.2 71C322 67 311 69 300 66C289 63 278 55 266.8 54C255.7 53 244.3 59 233.2 61C222 63 211 61 200 65C189 69 178 79 166.8 78C155.7 77 144.3 65 133.2 55C122 45 111 37 100 39C89 41 78 53 66.8 66C55.7 79 44.3 93 33.2 93C22 93 11 79 5.5 72L0 65Z" fill="#61e845"></path><path d="M0 301L5.5 312C11 323 22 345 33.2 347C44.3 349 55.7 331 66.8 303C78 275 89 237 100 228C111 219 122 239 133.2 244C144.3 249 155.7 239 166.8 244C178 249 189 269 200 266C211 263 222 237 233.2 229C244.3 221 255.7 231 266.8 232C278 233 289 225 300 233C311 241 322 265 333.2 275C344.3 285 355.7 281 366.8 270C378 259 389 241 400 250C411 259 422 295 433.2 302C444.3 309 455.7 287 466.8 255C478 223 489 181 500 185C511 189 522 239 533.2 256C544.3 273 555.7 257 566.8 260C578 263 589 285 594.5 296L600 307L600 239L594.5 236C589 233 578 227 566.8 224C555.7 221 544.3 221 533.2 204C522 187 511 153 500 156C489 159 478 199 466.8 226C455.7 253 444.3 267 433.2 253C422 239 411 197 400 191C389 185 378 215 366.8 225C355.7 235 344.3 225 333.2 214C322 203 311 191 300 185C289 179 278 179 266.8 178C255.7 177 244.3 175 233.2 183C222 191 211 209 200 215C189 221 178 215 166.8 209C155.7 203 144.3 197 133.2 182C122 167 111 143 100 151C89 159 78 199 66.8 234C55.7 269 44.3 299 33.2 299C22 299 11 269 5.5 254L0 239Z" fill="#4ee530"></path><path d="M0 373L5.5 381C11 389 22 405 33.2 412C44.3 419 55.7 417 66.8 413C78 409 89 403 100 393C111 383 122 369 133.2 358C144.3 347 155.7 339 166.8 341C178 343 189 355 200 363C211 371 222 375 233.2 378C244.3 381 255.7 383 266.8 369C278 355 289 325 300 319C311 313 322 331 333.2 343C344.3 355 355.7 361 366.8 363C378 365 389 363 400 368C411 373 422 385 433.2 381C444.3 377 455.7 357 466.8 338C478 319 489 301 500 317C511 333 522 383 533.2 395C544.3 407 555.7 381 566.8 372C578 363 589 371 594.5 375L600 379L600 305L594.5 294C589 283 578 261 566.8 258C555.7 255 544.3 271 533.2 254C522 237 511 187 500 183C489 179 478 221 466.8 253C455.7 285 444.3 307 433.2 300C422 293 411 257 400 248C389 239 378 257 366.8 268C355.7 279 344.3 283 333.2 273C322 263 311 239 300 231C289 223 278 231 266.8 230C255.7 229 244.3 219 233.2 227C222 235 211 261 200 264C189 267 178 247 166.8 242C155.7 237 144.3 247 133.2 242C122 237 111 217 100 226C89 235 78 273 66.8 301C55.7 329 44.3 347 33.2 345C22 343 11 321 5.5 310L0 299Z" fill="#36e20c"></path><path d="M0 391L5.5 403C11 415 22 439 33.2 452C44.3 465 55.7 467 66.8 470C78 473 89 477 100 461C111 445 122 409 133.2 398C144.3 387 155.7 401 166.8 410C178 419 189 423 200 421C211 419 222 411 233.2 407C244.3 403 255.7 403 266.8 398C278 393 289 383 300 381C311 379 322 385 333.2 389C344.3 393 355.7 395 366.8 397C378 399 389 401 400 408C411 415 422 427 433.2 425C444.3 423 455.7 407 466.8 391C478 375 489 359 500 373C511 387 522 431 533.2 442C544.3 453 555.7 431 566.8 420C578 409 589 409 594.5 409L600 409L600 377L594.5 373C589 369 578 361 566.8 370C555.7 379 544.3 405 533.2 393C522 381 511 331 500 315C489 299 478 317 466.8 336C455.7 355 444.3 375 433.2 379C422 383 411 371 400 366C389 361 378 363 366.8 361C355.7 359 344.3 353 333.2 341C322 329 311 311 300 317C289 323 278 353 266.8 367C255.7 381 244.3 379 233.2 376C222 373 211 369 200 361C189 353 178 341 166.8 339C155.7 337 144.3 345 133.2 356C122 367 111 381 100 391C89 401 78 407 66.8 411C55.7 415 44.3 417 33.2 410C22 403 11 387 5.5 379L0 371Z" fill="#32d20c"></path><path d="M0 469L5.5 481C11 493 22 517 33.2 527C44.3 537 55.7 533 66.8 531C78 529 89 529 100 516C111 503 122 477 133.2 477C144.3 477 155.7 503 166.8 508C178 513 189 497 200 483C211 469 222 457 233.2 454C244.3 451 255.7 457 266.8 463C278 469 289 475 300 477C311 479 322 477 333.2 477C344.3 477 355.7 479 366.8 482C378 485 389 489 400 492C411 495 422 497 433.2 491C444.3 485 455.7 471 466.8 466C478 461 489 465 500 476C511 487 522 505 533.2 514C544.3 523 555.7 523 566.8 519C578 515 589 507 594.5 503L600 499L600 407L594.5 407C589 407 578 407 566.8 418C555.7 429 544.3 451 533.2 440C522 429 511 385 500 371C489 357 478 373 466.8 389C455.7 405 444.3 421 433.2 423C422 425 411 413 400 406C389 399 378 397 366.8 395C355.7 393 344.3 391 333.2 387C322 383 311 377 300 379C289 381 278 391 266.8 396C255.7 401 244.3 401 233.2 405C222 409 211 417 200 419C189 421 178 417 166.8 408C155.7 399 144.3 385 133.2 396C122 407 111 443 100 459C89 475 78 471 66.8 468C55.7 465 44.3 463 33.2 450C22 437 11 413 5.5 401L0 389Z" fill="#2fc30c"></path><path d="M0 493L5.5 506C11 519 22 545 33.2 557C44.3 569 55.7 567 66.8 566C78 565 89 565 100 554C111 543 122 521 133.2 518C144.3 515 155.7 531 166.8 538C178 545 189 543 200 535C211 527 222 513 233.2 504C244.3 495 255.7 491 266.8 497C278 503 289 519 300 523C311 527 322 519 333.2 519C344.3 519 355.7 527 366.8 529C378 531 389 527 400 523C411 519 422 515 433.2 512C444.3 509 455.7 507 466.8 504C478 501 489 497 500 508C511 519 522 545 533.2 553C544.3 561 555.7 551 566.8 543C578 535 589 529 594.5 526L600 523L600 497L594.5 501C589 505 578 513 566.8 517C555.7 521 544.3 521 533.2 512C522 503 511 485 500 474C489 463 478 459 466.8 464C455.7 469 444.3 483 433.2 489C422 495 411 493 400 490C389 487 378 483 366.8 480C355.7 477 344.3 475 333.2 475C322 475 311 477 300 475C289 473 278 467 266.8 461C255.7 455 244.3 449 233.2 452C222 455 211 467 200 481C189 495 178 511 166.8 506C155.7 501 144.3 475 133.2 475C122 475 111 501 100 514C89 527 78 527 66.8 529C55.7 531 44.3 535 33.2 525C22 515 11 491 5.5 479L0 467Z" fill="#2bb40c"></path><path d="M0 601L5.5 601C11 601 22 601 33.2 601C44.3 601 55.7 601 66.8 601C78 601 89 601 100 601C111 601 122 601 133.2 601C144.3 601 155.7 601 166.8 601C178 601 189 601 200 601C211 601 222 601 233.2 601C244.3 601 255.7 601 266.8 601C278 601 289 601 300 601C311 601 322 601 333.2 601C344.3 601 355.7 601 366.8 601C378 601 389 601 400 601C411 601 422 601 433.2 601C444.3 601 455.7 601 466.8 601C478 601 489 601 500 601C511 601 522 601 533.2 601C544.3 601 555.7 601 566.8 601C578 601 589 601 594.5 601L600 601L600 521L594.5 524C589 527 578 533 566.8 541C555.7 549 544.3 559 533.2 551C522 543 511 517 500 506C489 495 478 499 466.8 502C455.7 505 444.3 507 433.2 510C422 513 411 517 400 521C389 525 378 529 366.8 527C355.7 525 344.3 517 333.2 517C322 517 311 525 300 521C289 517 278 501 266.8 495C255.7 489 244.3 493 233.2 502C222 511 211 525 200 533C189 541 178 543 166.8 536C155.7 529 144.3 513 133.2 516C122 519 111 541 100 552C89 563 78 563 66.8 564C55.7 565 44.3 567 33.2 555C22 543 11 517 5.5 504L0 491Z" fill="#28a50c"></path></svg>