<svg id="visual" viewBox="0 0 675 900" width="675" height="900" xmlns="http://www.w3.org/2000/svg" xmlns:xlink="http://www.w3.org/1999/xlink" version="1.1"><rect x="0" y="0" width="675" height="900" fill="#d9331d"></rect><defs><linearGradient id="grad1_0" x1="0%" y1="0%" x2="100%" y2="100%"><stop offset="30%" stop-color="#ec6f4b" stop-opacity="1"></stop><stop offset="70%" stop-color="#ec6f4b" stop-opacity="1"></stop></linearGradient></defs><defs><linearGradient id="grad1_1" x1="0%" y1="0%" x2="100%" y2="100%"><stop offset="30%" stop-color="#ec6f4b" stop-opacity="1"></stop><stop offset="70%" stop-color="#e65d3b" stop-opacity="1"></stop></linearGradient></defs><defs><linearGradient id="grad1_2" x1="0%" y1="0%" x2="100%" y2="100%"><stop offset="30%" stop-color="#e04a2c" stop-opacity="1"></stop><stop offset="70%" stop-color="#e65d3b" stop-opacity="1"></stop></linearGradient></defs><defs><linearGradient id="grad1_3" x1="0%" y1="0%" x2="100%" y2="100%"><stop offset="30%" stop-color="#e04a2c" stop-opacity="1"></stop><stop offset="70%" stop-color="#d9331d" stop-opacity="1"></stop></linearGradient></defs><defs><linearGradient id="grad2_0" x1="0%" y1="0%" x2="100%" y2="100%"><stop offset="30%" stop-color="#ec6f4b" stop-opacity="1"></stop><stop offset="70%" stop-color="#ec6f4b" stop-opacity="1"></stop></linearGradient></defs><defs><linearGradient id="grad2_1" x1="0%" y1="0%" x2="100%" y2="100%"><stop offset="30%" stop-color="#e65d3b" stop-opacity="1"></stop><stop offset="70%" stop-color="#ec6f4b" stop-opacity="1"></stop></linearGradient></defs><defs><linearGradient id="grad2_2" x1="0%" y1="0%" x2="100%" y2="100%"><stop offset="30%" stop-color="#e65d3b" stop-opacity="1"></stop><stop offset="70%" stop-color="#e04a2c" stop-opacity="1"></stop></linearGradient></defs><defs><linearGradient id="grad2_3" x1="0%" y1="0%" x2="100%" y2="100%"><stop offset="30%" stop-color="#d9331d" stop-opacity="1"></stop><stop offset="70%" stop-color="#e04a2c" stop-opacity="1"></stop></linearGradient></defs><g transform="translate(675, 0)"><path d="M0 478.1C-36.5 456.3 -73.1 434.5 -114.7 427.9C-156.2 421.3 -202.8 429.8 -239.1 414.1C-275.3 398.3 -301.2 358.3 -319.6 319.6C-338 280.9 -348.9 243.4 -362.9 209.5C-376.8 175.6 -393.7 145.1 -413.4 110.8C-433.1 76.4 -455.6 38.2 -478.1 0L0 0Z" fill="#dc3f25"></path><path d="M0 358.6C-27.4 342.2 -54.8 325.9 -86 320.9C-117.2 316 -152.1 322.4 -179.3 310.6C-206.5 298.8 -225.9 268.8 -239.7 239.7C-253.5 210.7 -261.7 182.6 -272.1 157.1C-282.6 131.7 -295.3 108.8 -310.1 83.1C-324.8 57.3 -341.7 28.7 -358.6 0L0 0Z" fill="#e35434"></path><path d="M0 239.1C-18.3 228.2 -36.5 217.3 -57.3 214C-78.1 210.6 -101.4 214.9 -119.5 207C-137.7 199.2 -150.6 179.2 -159.8 159.8C-169 140.4 -174.5 121.7 -181.4 104.8C-188.4 87.8 -196.9 72.6 -206.7 55.4C-216.6 38.2 -227.8 19.1 -239.1 0L0 0Z" fill="#e96643"></path><path d="M0 119.5C-9.1 114.1 -18.3 108.6 -28.7 107C-39.1 105.3 -50.7 107.5 -59.8 103.5C-68.8 99.6 -75.3 89.6 -79.9 79.9C-84.5 70.2 -87.2 60.9 -90.7 52.4C-94.2 43.9 -98.4 36.3 -103.4 27.7C-108.3 19.1 -113.9 9.6 -119.5 0L0 0Z" fill="#ec6f4b"></path></g><g transform="translate(0, 900)"><path d="M0 -478.1C44.3 -479.3 88.6 -480.5 123.7 -461.8C158.9 -443.1 184.9 -404.5 220.5 -381.9C256.1 -359.3 301.1 -352.7 325.3 -325.3C349.4 -297.8 352.7 -249.4 367.2 -212C381.7 -174.6 407.5 -148.2 427.9 -114.7C448.3 -81.2 463.2 -40.6 478.1 0L0 0Z" fill="#dc3f25"></path><path d="M0 -358.6C33.2 -359.5 66.4 -360.4 92.8 -346.4C119.2 -332.3 138.7 -303.4 165.4 -286.4C192 -269.5 225.8 -264.6 244 -244C262.1 -223.3 264.5 -187.1 275.4 -159C286.3 -130.9 305.7 -111.1 320.9 -86C336.2 -60.9 347.4 -30.4 358.6 0L0 0Z" fill="#e35434"></path><path d="M0 -239.1C22.1 -239.7 44.3 -240.3 61.9 -230.9C79.5 -221.6 92.5 -202.3 110.2 -191C128 -179.7 150.6 -176.4 162.6 -162.6C174.7 -148.9 176.3 -124.7 183.6 -106C190.9 -87.3 203.8 -74.1 214 -57.3C224.1 -40.6 231.6 -20.3 239.1 0L0 0Z" fill="#e96643"></path><path d="M0 -119.5C11.1 -119.8 22.1 -120.1 30.9 -115.5C39.7 -110.8 46.2 -101.1 55.1 -95.5C64 -89.8 75.3 -88.2 81.3 -81.3C87.4 -74.4 88.2 -62.4 91.8 -53C95.4 -43.6 101.9 -37 107 -28.7C112.1 -20.3 115.8 -10.1 119.5 0L0 0Z" fill="#ec6f4b"></path></g></svg>